<?xml version="1.0" ?><svg xmlns="http://www.w3.org/2000/svg" aria-roledescription="er" role="graphics-document document" viewBox="-112.72067260742188 0 877.0789794921875 994" style="background-color:#ffffff" width="100%" id="mermaid-svg-1752176621801-67hica0b0"><style>#mermaid-svg-1752176621801-67hica0b0{font-family:&quot;trebuchet ms&quot;,verdana,arial,sans-serif;font-size:16px;fill:rgba(204, 204, 204, 0.87);}#mermaid-svg-1752176621801-67hica0b0 .error-icon{fill:#bf616a;}#mermaid-svg-1752176621801-67hica0b0 .error-text{fill:#bf616a;stroke:#bf616a;}#mermaid-svg-1752176621801-67hica0b0 .edge-thickness-normal{stroke-width:2px;}#mermaid-svg-1752176621801-67hica0b0 .edge-thickness-thick{stroke-width:3.5px;}#mermaid-svg-1752176621801-67hica0b0 .edge-pattern-solid{stroke-dasharray:0;}#mermaid-svg-1752176621801-67hica0b0 .edge-pattern-dashed{stroke-dasharray:3;}#mermaid-svg-1752176621801-67hica0b0 .edge-pattern-dotted{stroke-dasharray:2;}#mermaid-svg-1752176621801-67hica0b0 .marker{fill:rgba(204, 204, 204, 0.87);stroke:rgba(204, 204, 204, 0.87);}#mermaid-svg-1752176621801-67hica0b0 .marker.cross{stroke:rgba(204, 204, 204, 0.87);}#mermaid-svg-1752176621801-67hica0b0 svg{font-family:&quot;trebuchet ms&quot;,verdana,arial,sans-serif;font-size:16px;}#mermaid-svg-1752176621801-67hica0b0 .entityBox{fill:#1a1a1a;stroke:#2a2a2a;}#mermaid-svg-1752176621801-67hica0b0 .attributeBoxOdd{fill:#ffffff;stroke:#2a2a2a;}#mermaid-svg-1752176621801-67hica0b0 .attributeBoxEven{fill:#f2f2f2;stroke:#2a2a2a;}#mermaid-svg-1752176621801-67hica0b0 .relationshipLabelBox{fill:#88c0d0;opacity:0.7;background-color:#88c0d0;}#mermaid-svg-1752176621801-67hica0b0 .relationshipLabelBox rect{opacity:0.5;}#mermaid-svg-1752176621801-67hica0b0 .relationshipLine{stroke:rgba(204, 204, 204, 0.87);}#mermaid-svg-1752176621801-67hica0b0 .entityTitleText{text-anchor:middle;font-size:18px;fill:rgba(204, 204, 204, 0.87);}#mermaid-svg-1752176621801-67hica0b0 #MD_PARENT_START{fill:#f5f5f5!important;stroke:rgba(204, 204, 204, 0.87)!important;stroke-width:1;}#mermaid-svg-1752176621801-67hica0b0 #MD_PARENT_END{fill:#f5f5f5!important;stroke:rgba(204, 204, 204, 0.87)!important;stroke-width:1;}#mermaid-svg-1752176621801-67hica0b0 :root{--mermaid-font-family:&quot;trebuchet ms&quot;,verdana,arial,sans-serif;}</style><g/><defs><marker orient="auto" markerHeight="240" markerWidth="190" refY="7" refX="0" id="MD_PARENT_START"><path d="M 18,7 L9,13 L1,7 L9,1 Z"/></marker></defs><defs><marker orient="auto" markerHeight="28" markerWidth="20" refY="7" refX="19" id="MD_PARENT_END"><path d="M 18,7 L9,13 L1,7 L9,1 Z"/></marker></defs><defs><marker orient="auto" markerHeight="18" markerWidth="18" refY="9" refX="0" id="ONLY_ONE_START"><path d="M9,0 L9,18 M15,0 L15,18" fill="none" stroke="gray"/></marker></defs><defs><marker orient="auto" markerHeight="18" markerWidth="18" refY="9" refX="18" id="ONLY_ONE_END"><path d="M3,0 L3,18 M9,0 L9,18" fill="none" stroke="gray"/></marker></defs><defs><marker orient="auto" markerHeight="18" markerWidth="30" refY="9" refX="0" id="ZERO_OR_ONE_START"><circle r="6" cy="9" cx="21" fill="white" stroke="gray"/><path d="M9,0 L9,18" fill="none" stroke="gray"/></marker></defs><defs><marker orient="auto" markerHeight="18" markerWidth="30" refY="9" refX="30" id="ZERO_OR_ONE_END"><circle r="6" cy="9" cx="9" fill="white" stroke="gray"/><path d="M21,0 L21,18" fill="none" stroke="gray"/></marker></defs><defs><marker orient="auto" markerHeight="36" markerWidth="45" refY="18" refX="18" id="ONE_OR_MORE_START"><path d="M0,18 Q 18,0 36,18 Q 18,36 0,18 M42,9 L42,27" fill="none" stroke="gray"/></marker></defs><defs><marker orient="auto" markerHeight="36" markerWidth="45" refY="18" refX="27" id="ONE_OR_MORE_END"><path d="M3,9 L3,27 M9,18 Q27,0 45,18 Q27,36 9,18" fill="none" stroke="gray"/></marker></defs><defs><marker orient="auto" markerHeight="36" markerWidth="57" refY="18" refX="18" id="ZERO_OR_MORE_START"><circle r="6" cy="18" cx="48" fill="white" stroke="gray"/><path d="M0,18 Q18,0 36,18 Q18,36 0,18" fill="none" stroke="gray"/></marker></defs><defs><marker orient="auto" markerHeight="36" markerWidth="57" refY="18" refX="39" id="ZERO_OR_MORE_END"><circle r="6" cy="18" cx="9" fill="white" stroke="gray"/><path d="M21,18 Q39,0 57,18 Q39,36 21,18" fill="none" stroke="gray"/></marker></defs><path style="stroke: gray; fill: none;" marker-start="url(#ONLY_ONE_START)" marker-end="url(#ZERO_OR_MORE_END)" d="M155.354,225.273L102.689,254.727C50.025,284.182,-55.304,343.091,-77.863,394.583C-100.422,446.074,-40.211,490.149,-10.105,512.186L20,534.223" class="er relationshipLine"/><path style="stroke: gray; fill: none;" marker-start="url(#ONLY_ONE_START)" marker-end="url(#ZERO_OR_MORE_END)" d="M155.354,238.994L119.356,266.162C83.358,293.33,11.363,347.665,-11.196,391.228C-33.755,434.791,-6.878,467.581,6.561,483.977L20,500.372" class="er relationshipLine"/><path style="stroke: gray; fill: none;" marker-start="url(#ONLY_ONE_START)" marker-end="url(#ZERO_OR_MORE_END)" d="M155.354,267.455L136.022,289.879C116.691,312.303,78.029,357.152,60.975,387.909C43.921,418.667,48.475,435.333,50.752,443.667L53.028,452" class="er relationshipLine"/><path style="stroke: gray; fill: none;" marker-start="url(#ZERO_OR_MORE_START)" marker-end="url(#ONLY_ONE_END)" d="M53.028,718L50.752,726.333C48.475,734.667,43.921,751.333,44.899,768C45.878,784.667,52.388,801.333,55.643,809.667L58.898,818" class="er relationshipLine"/><path style="stroke: gray; fill: none;" marker-start="url(#ZERO_OR_MORE_START)" marker-end="url(#ONLY_ONE_END)" d="M125.706,452L127.983,443.667C130.26,435.333,134.813,418.667,140.416,402C146.019,385.333,152.67,368.667,155.996,360.333L159.322,352" class="er relationshipLine"/><path style="stroke: gray; fill: none;" marker-start="url(#ZERO_OR_MORE_START)" marker-end="url(#ONLY_ONE_END)" d="M158.734,500.372L172.173,483.977C185.612,467.581,212.49,434.791,225.396,410.062C238.303,385.333,237.238,368.667,236.706,360.333L236.174,352" class="er relationshipLine"/><path style="stroke: gray; fill: none;" marker-start="url(#ZERO_OR_MORE_START)" marker-end="url(#ONLY_ONE_END)" d="M158.734,534.223L188.84,512.186C218.945,490.149,279.156,446.074,301.999,410.252C324.842,374.429,310.316,346.857,303.054,333.072L295.791,319.286" class="er relationshipLine"/><path style="stroke: gray; fill: none;" marker-start="url(#ZERO_OR_MORE_START)" marker-end="url(#ONLY_ONE_END)" d="M295.791,256.943L319.72,281.119C343.65,305.295,391.508,353.648,421.221,398.99C450.934,444.333,462.5,486.667,468.283,507.833L474.067,529" class="er relationshipLine"/><path style="stroke: gray; fill: none;" marker-start="url(#ZERO_OR_MORE_START)" marker-end="url(#ONLY_ONE_END)" d="M668.479,818L668.479,809.667C668.479,801.333,668.479,784.667,668.479,745.833C668.479,707,668.479,646,668.479,585C668.479,524,668.479,463,606.364,402.207C544.249,341.415,420.02,280.83,357.906,250.537L295.791,220.245" class="er relationshipLine"/><path style="stroke: gray; fill: none;" marker-start="url(#ZERO_OR_MORE_START)" marker-end="url(#ONLY_ONE_END)" d="M729.416,818L735.926,809.667C742.437,801.333,755.458,784.667,725.153,752.196C694.849,719.725,621.219,671.449,584.405,647.312L547.59,623.174" class="er relationshipLine"/><path style="stroke: gray; fill: none;" marker-start="url(#ONLY_ONE_START)" marker-end="url(#ZERO_OR_MORE_END)" d="M504.668,529L510.451,507.833C516.234,486.667,527.801,444.333,492.988,395.222C458.175,346.112,376.983,290.223,336.387,262.279L295.791,234.335" class="er relationshipLine"/><path style="stroke: gray; fill: none;" marker-start="url(#ONLY_ONE_START)" marker-end="url(#ZERO_OR_MORE_END)" d="M489.367,641L489.367,662.167C489.367,683.333,489.367,725.667,507.516,759.803C525.665,793.94,561.962,819.879,580.111,832.849L598.26,845.819" class="er relationshipLine"/><path style="stroke: gray; fill: none;" marker-start="url(#ONLY_ONE_START)" marker-end="url(#ZERO_OR_MORE_END)" d="M149.875,863.211L179.158,847.342C208.441,831.474,267.007,799.737,268.483,762.325C269.96,724.914,214.347,681.828,186.541,660.285L158.734,638.742" class="er relationshipLine"/><g transform="translate(155.353515625,20 )" id="entity-FIGHTER-d89479c6-d088-5d60-9d11-1e45239d78fe"><rect height="332" width="140.4375" y="0" x="0" class="er entityBox"/><text transform="translate(70.21875,12)" style="dominant-baseline: middle; text-anchor: middle; font-size: 12px;" y="0" x="0" id="text-entity-FIGHTER-d89479c6-d088-5d60-9d11-1e45239d78fe" class="er entityLabel" fill="#000000">FIGHTER</text><rect height="22" width="58.671875" y="24" x="0" class="er attributeBoxOdd"/><text transform="translate(5,35)" style="dominant-baseline: middle; font-size: 10.2px;" y="0" x="0" id="text-entity-FIGHTER-d89479c6-d088-5d60-9d11-1e45239d78fe-attr-1-type" class="er entityLabel" fill="#000000">int</text><rect height="22" width="81.765625" y="24" x="58.671875" class="er attributeBoxOdd"/><text transform="translate(63.671875,35)" style="dominant-baseline: middle; font-size: 10.2px;" y="0" x="0" id="text-entity-FIGHTER-d89479c6-d088-5d60-9d11-1e45239d78fe-attr-1-name" class="er entityLabel" fill="#000000">id</text><rect height="22" width="58.671875" y="46" x="0" class="er attributeBoxEven"/><text transform="translate(5,57)" style="dominant-baseline: middle; font-size: 10.2px;" y="0" x="0" id="text-entity-FIGHTER-d89479c6-d088-5d60-9d11-1e45239d78fe-attr-2-type" class="er entityLabel" fill="#000000">string</text><rect height="22" width="81.765625" y="46" x="58.671875" class="er attributeBoxEven"/><text transform="translate(63.671875,57)" style="dominant-baseline: middle; font-size: 10.2px;" y="0" x="0" id="text-entity-FIGHTER-d89479c6-d088-5d60-9d11-1e45239d78fe-attr-2-name" class="er entityLabel" fill="#000000">first_name</text><rect height="22" width="58.671875" y="68" x="0" class="er attributeBoxOdd"/><text transform="translate(5,79)" style="dominant-baseline: middle; font-size: 10.2px;" y="0" x="0" id="text-entity-FIGHTER-d89479c6-d088-5d60-9d11-1e45239d78fe-attr-3-type" class="er entityLabel" fill="#000000">string</text><rect height="22" width="81.765625" y="68" x="58.671875" class="er attributeBoxOdd"/><text transform="translate(63.671875,79)" style="dominant-baseline: middle; font-size: 10.2px;" y="0" x="0" id="text-entity-FIGHTER-d89479c6-d088-5d60-9d11-1e45239d78fe-attr-3-name" class="er entityLabel" fill="#000000">last_name</text><rect height="22" width="58.671875" y="90" x="0" class="er attributeBoxEven"/><text transform="translate(5,101)" style="dominant-baseline: middle; font-size: 10.2px;" y="0" x="0" id="text-entity-FIGHTER-d89479c6-d088-5d60-9d11-1e45239d78fe-attr-4-type" class="er entityLabel" fill="#000000">string</text><rect height="22" width="81.765625" y="90" x="58.671875" class="er attributeBoxEven"/><text transform="translate(63.671875,101)" style="dominant-baseline: middle; font-size: 10.2px;" y="0" x="0" id="text-entity-FIGHTER-d89479c6-d088-5d60-9d11-1e45239d78fe-attr-4-name" class="er entityLabel" fill="#000000">nickname</text><rect height="22" width="58.671875" y="112" x="0" class="er attributeBoxOdd"/><text transform="translate(5,123)" style="dominant-baseline: middle; font-size: 10.2px;" y="0" x="0" id="text-entity-FIGHTER-d89479c6-d088-5d60-9d11-1e45239d78fe-attr-5-type" class="er entityLabel" fill="#000000">date</text><rect height="22" width="81.765625" y="112" x="58.671875" class="er attributeBoxOdd"/><text transform="translate(63.671875,123)" style="dominant-baseline: middle; font-size: 10.2px;" y="0" x="0" id="text-entity-FIGHTER-d89479c6-d088-5d60-9d11-1e45239d78fe-attr-5-name" class="er entityLabel" fill="#000000">birthdate</text><rect height="22" width="58.671875" y="134" x="0" class="er attributeBoxEven"/><text transform="translate(5,145)" style="dominant-baseline: middle; font-size: 10.2px;" y="0" x="0" id="text-entity-FIGHTER-d89479c6-d088-5d60-9d11-1e45239d78fe-attr-6-type" class="er entityLabel" fill="#000000">string</text><rect height="22" width="81.765625" y="134" x="58.671875" class="er attributeBoxEven"/><text transform="translate(63.671875,145)" style="dominant-baseline: middle; font-size: 10.2px;" y="0" x="0" id="text-entity-FIGHTER-d89479c6-d088-5d60-9d11-1e45239d78fe-attr-6-name" class="er entityLabel" fill="#000000">nationality</text><rect height="22" width="58.671875" y="156" x="0" class="er attributeBoxOdd"/><text transform="translate(5,167)" style="dominant-baseline: middle; font-size: 10.2px;" y="0" x="0" id="text-entity-FIGHTER-d89479c6-d088-5d60-9d11-1e45239d78fe-attr-7-type" class="er entityLabel" fill="#000000">int</text><rect height="22" width="81.765625" y="156" x="58.671875" class="er attributeBoxOdd"/><text transform="translate(63.671875,167)" style="dominant-baseline: middle; font-size: 10.2px;" y="0" x="0" id="text-entity-FIGHTER-d89479c6-d088-5d60-9d11-1e45239d78fe-attr-7-name" class="er entityLabel" fill="#000000">height_cm</text><rect height="22" width="58.671875" y="178" x="0" class="er attributeBoxEven"/><text transform="translate(5,189)" style="dominant-baseline: middle; font-size: 10.2px;" y="0" x="0" id="text-entity-FIGHTER-d89479c6-d088-5d60-9d11-1e45239d78fe-attr-8-type" class="er entityLabel" fill="#000000">int</text><rect height="22" width="81.765625" y="178" x="58.671875" class="er attributeBoxEven"/><text transform="translate(63.671875,189)" style="dominant-baseline: middle; font-size: 10.2px;" y="0" x="0" id="text-entity-FIGHTER-d89479c6-d088-5d60-9d11-1e45239d78fe-attr-8-name" class="er entityLabel" fill="#000000">weight_kg</text><rect height="22" width="58.671875" y="200" x="0" class="er attributeBoxOdd"/><text transform="translate(5,211)" style="dominant-baseline: middle; font-size: 10.2px;" y="0" x="0" id="text-entity-FIGHTER-d89479c6-d088-5d60-9d11-1e45239d78fe-attr-9-type" class="er entityLabel" fill="#000000">int</text><rect height="22" width="81.765625" y="200" x="58.671875" class="er attributeBoxOdd"/><text transform="translate(63.671875,211)" style="dominant-baseline: middle; font-size: 10.2px;" y="0" x="0" id="text-entity-FIGHTER-d89479c6-d088-5d60-9d11-1e45239d78fe-attr-9-name" class="er entityLabel" fill="#000000">reach_cm</text><rect height="22" width="58.671875" y="222" x="0" class="er attributeBoxEven"/><text transform="translate(5,233)" style="dominant-baseline: middle; font-size: 10.2px;" y="0" x="0" id="text-entity-FIGHTER-d89479c6-d088-5d60-9d11-1e45239d78fe-attr-10-type" class="er entityLabel" fill="#000000">string</text><rect height="22" width="81.765625" y="222" x="58.671875" class="er attributeBoxEven"/><text transform="translate(63.671875,233)" style="dominant-baseline: middle; font-size: 10.2px;" y="0" x="0" id="text-entity-FIGHTER-d89479c6-d088-5d60-9d11-1e45239d78fe-attr-10-name" class="er entityLabel" fill="#000000">stance</text><rect height="22" width="58.671875" y="244" x="0" class="er attributeBoxOdd"/><text transform="translate(5,255)" style="dominant-baseline: middle; font-size: 10.2px;" y="0" x="0" id="text-entity-FIGHTER-d89479c6-d088-5d60-9d11-1e45239d78fe-attr-11-type" class="er entityLabel" fill="#000000">string</text><rect height="22" width="81.765625" y="244" x="58.671875" class="er attributeBoxOdd"/><text transform="translate(63.671875,255)" style="dominant-baseline: middle; font-size: 10.2px;" y="0" x="0" id="text-entity-FIGHTER-d89479c6-d088-5d60-9d11-1e45239d78fe-attr-11-name" class="er entityLabel" fill="#000000">gym</text><rect height="22" width="58.671875" y="266" x="0" class="er attributeBoxEven"/><text transform="translate(5,277)" style="dominant-baseline: middle; font-size: 10.2px;" y="0" x="0" id="text-entity-FIGHTER-d89479c6-d088-5d60-9d11-1e45239d78fe-attr-12-type" class="er entityLabel" fill="#000000">int</text><rect height="22" width="81.765625" y="266" x="58.671875" class="er attributeBoxEven"/><text transform="translate(63.671875,277)" style="dominant-baseline: middle; font-size: 10.2px;" y="0" x="0" id="text-entity-FIGHTER-d89479c6-d088-5d60-9d11-1e45239d78fe-attr-12-name" class="er entityLabel" fill="#000000">weight_class_id</text><rect height="22" width="58.671875" y="288" x="0" class="er attributeBoxOdd"/><text transform="translate(5,299)" style="dominant-baseline: middle; font-size: 10.2px;" y="0" x="0" id="text-entity-FIGHTER-d89479c6-d088-5d60-9d11-1e45239d78fe-attr-13-type" class="er entityLabel" fill="#000000">timestamp</text><rect height="22" width="81.765625" y="288" x="58.671875" class="er attributeBoxOdd"/><text transform="translate(63.671875,299)" style="dominant-baseline: middle; font-size: 10.2px;" y="0" x="0" id="text-entity-FIGHTER-d89479c6-d088-5d60-9d11-1e45239d78fe-attr-13-name" class="er entityLabel" fill="#000000">created_at</text><rect height="22" width="58.671875" y="310" x="0" class="er attributeBoxEven"/><text transform="translate(5,321)" style="dominant-baseline: middle; font-size: 10.2px;" y="0" x="0" id="text-entity-FIGHTER-d89479c6-d088-5d60-9d11-1e45239d78fe-attr-14-type" class="er entityLabel" fill="#000000">timestamp</text><rect height="22" width="81.765625" y="310" x="58.671875" class="er attributeBoxEven"/><text transform="translate(63.671875,321)" style="dominant-baseline: middle; font-size: 10.2px;" y="0" x="0" id="text-entity-FIGHTER-d89479c6-d088-5d60-9d11-1e45239d78fe-attr-14-name" class="er entityLabel" fill="#000000">updated_at</text></g><g transform="translate(20,452 )" id="entity-FIGHT-44b9a4ae-6a7d-51d4-83bd-91f9b75abf4c"><rect height="266" width="138.734375" y="0" x="0" class="er entityBox"/><text transform="translate(69.3671875,12)" style="dominant-baseline: middle; text-anchor: middle; font-size: 12px;" y="0" x="0" id="text-entity-FIGHT-44b9a4ae-6a7d-51d4-83bd-91f9b75abf4c" class="er entityLabel" fill="#000000">FIGHT</text><rect height="22" width="58.671875" y="24" x="0" class="er attributeBoxOdd"/><text transform="translate(5,35)" style="dominant-baseline: middle; font-size: 10.2px;" y="0" x="0" id="text-entity-FIGHT-44b9a4ae-6a7d-51d4-83bd-91f9b75abf4c-attr-1-type" class="er entityLabel" fill="#000000">int</text><rect height="22" width="80.0625" y="24" x="58.671875" class="er attributeBoxOdd"/><text transform="translate(63.671875,35)" style="dominant-baseline: middle; font-size: 10.2px;" y="0" x="0" id="text-entity-FIGHT-44b9a4ae-6a7d-51d4-83bd-91f9b75abf4c-attr-1-name" class="er entityLabel" fill="#000000">id</text><rect height="22" width="58.671875" y="46" x="0" class="er attributeBoxEven"/><text transform="translate(5,57)" style="dominant-baseline: middle; font-size: 10.2px;" y="0" x="0" id="text-entity-FIGHT-44b9a4ae-6a7d-51d4-83bd-91f9b75abf4c-attr-2-type" class="er entityLabel" fill="#000000">int</text><rect height="22" width="80.0625" y="46" x="58.671875" class="er attributeBoxEven"/><text transform="translate(63.671875,57)" style="dominant-baseline: middle; font-size: 10.2px;" y="0" x="0" id="text-entity-FIGHT-44b9a4ae-6a7d-51d4-83bd-91f9b75abf4c-attr-2-name" class="er entityLabel" fill="#000000">event_id</text><rect height="22" width="58.671875" y="68" x="0" class="er attributeBoxOdd"/><text transform="translate(5,79)" style="dominant-baseline: middle; font-size: 10.2px;" y="0" x="0" id="text-entity-FIGHT-44b9a4ae-6a7d-51d4-83bd-91f9b75abf4c-attr-3-type" class="er entityLabel" fill="#000000">int</text><rect height="22" width="80.0625" y="68" x="58.671875" class="er attributeBoxOdd"/><text transform="translate(63.671875,79)" style="dominant-baseline: middle; font-size: 10.2px;" y="0" x="0" id="text-entity-FIGHT-44b9a4ae-6a7d-51d4-83bd-91f9b75abf4c-attr-3-name" class="er entityLabel" fill="#000000">fighter_red_id</text><rect height="22" width="58.671875" y="90" x="0" class="er attributeBoxEven"/><text transform="translate(5,101)" style="dominant-baseline: middle; font-size: 10.2px;" y="0" x="0" id="text-entity-FIGHT-44b9a4ae-6a7d-51d4-83bd-91f9b75abf4c-attr-4-type" class="er entityLabel" fill="#000000">int</text><rect height="22" width="80.0625" y="90" x="58.671875" class="er attributeBoxEven"/><text transform="translate(63.671875,101)" style="dominant-baseline: middle; font-size: 10.2px;" y="0" x="0" id="text-entity-FIGHT-44b9a4ae-6a7d-51d4-83bd-91f9b75abf4c-attr-4-name" class="er entityLabel" fill="#000000">fighter_blue_id</text><rect height="22" width="58.671875" y="112" x="0" class="er attributeBoxOdd"/><text transform="translate(5,123)" style="dominant-baseline: middle; font-size: 10.2px;" y="0" x="0" id="text-entity-FIGHT-44b9a4ae-6a7d-51d4-83bd-91f9b75abf4c-attr-5-type" class="er entityLabel" fill="#000000">int</text><rect height="22" width="80.0625" y="112" x="58.671875" class="er attributeBoxOdd"/><text transform="translate(63.671875,123)" style="dominant-baseline: middle; font-size: 10.2px;" y="0" x="0" id="text-entity-FIGHT-44b9a4ae-6a7d-51d4-83bd-91f9b75abf4c-attr-5-name" class="er entityLabel" fill="#000000">winner_id</text><rect height="22" width="58.671875" y="134" x="0" class="er attributeBoxEven"/><text transform="translate(5,145)" style="dominant-baseline: middle; font-size: 10.2px;" y="0" x="0" id="text-entity-FIGHT-44b9a4ae-6a7d-51d4-83bd-91f9b75abf4c-attr-6-type" class="er entityLabel" fill="#000000">string</text><rect height="22" width="80.0625" y="134" x="58.671875" class="er attributeBoxEven"/><text transform="translate(63.671875,145)" style="dominant-baseline: middle; font-size: 10.2px;" y="0" x="0" id="text-entity-FIGHT-44b9a4ae-6a7d-51d4-83bd-91f9b75abf4c-attr-6-name" class="er entityLabel" fill="#000000">method</text><rect height="22" width="58.671875" y="156" x="0" class="er attributeBoxOdd"/><text transform="translate(5,167)" style="dominant-baseline: middle; font-size: 10.2px;" y="0" x="0" id="text-entity-FIGHT-44b9a4ae-6a7d-51d4-83bd-91f9b75abf4c-attr-7-type" class="er entityLabel" fill="#000000">int</text><rect height="22" width="80.0625" y="156" x="58.671875" class="er attributeBoxOdd"/><text transform="translate(63.671875,167)" style="dominant-baseline: middle; font-size: 10.2px;" y="0" x="0" id="text-entity-FIGHT-44b9a4ae-6a7d-51d4-83bd-91f9b75abf4c-attr-7-name" class="er entityLabel" fill="#000000">round</text><rect height="22" width="58.671875" y="178" x="0" class="er attributeBoxEven"/><text transform="translate(5,189)" style="dominant-baseline: middle; font-size: 10.2px;" y="0" x="0" id="text-entity-FIGHT-44b9a4ae-6a7d-51d4-83bd-91f9b75abf4c-attr-8-type" class="er entityLabel" fill="#000000">string</text><rect height="22" width="80.0625" y="178" x="58.671875" class="er attributeBoxEven"/><text transform="translate(63.671875,189)" style="dominant-baseline: middle; font-size: 10.2px;" y="0" x="0" id="text-entity-FIGHT-44b9a4ae-6a7d-51d4-83bd-91f9b75abf4c-attr-8-name" class="er entityLabel" fill="#000000">time</text><rect height="22" width="58.671875" y="200" x="0" class="er attributeBoxOdd"/><text transform="translate(5,211)" style="dominant-baseline: middle; font-size: 10.2px;" y="0" x="0" id="text-entity-FIGHT-44b9a4ae-6a7d-51d4-83bd-91f9b75abf4c-attr-9-type" class="er entityLabel" fill="#000000">text</text><rect height="22" width="80.0625" y="200" x="58.671875" class="er attributeBoxOdd"/><text transform="translate(63.671875,211)" style="dominant-baseline: middle; font-size: 10.2px;" y="0" x="0" id="text-entity-FIGHT-44b9a4ae-6a7d-51d4-83bd-91f9b75abf4c-attr-9-name" class="er entityLabel" fill="#000000">result_details</text><rect height="22" width="58.671875" y="222" x="0" class="er attributeBoxEven"/><text transform="translate(5,233)" style="dominant-baseline: middle; font-size: 10.2px;" y="0" x="0" id="text-entity-FIGHT-44b9a4ae-6a7d-51d4-83bd-91f9b75abf4c-attr-10-type" class="er entityLabel" fill="#000000">timestamp</text><rect height="22" width="80.0625" y="222" x="58.671875" class="er attributeBoxEven"/><text transform="translate(63.671875,233)" style="dominant-baseline: middle; font-size: 10.2px;" y="0" x="0" id="text-entity-FIGHT-44b9a4ae-6a7d-51d4-83bd-91f9b75abf4c-attr-10-name" class="er entityLabel" fill="#000000">created_at</text><rect height="22" width="58.671875" y="244" x="0" class="er attributeBoxOdd"/><text transform="translate(5,255)" style="dominant-baseline: middle; font-size: 10.2px;" y="0" x="0" id="text-entity-FIGHT-44b9a4ae-6a7d-51d4-83bd-91f9b75abf4c-attr-11-type" class="er entityLabel" fill="#000000">timestamp</text><rect height="22" width="80.0625" y="244" x="58.671875" class="er attributeBoxOdd"/><text transform="translate(63.671875,255)" style="dominant-baseline: middle; font-size: 10.2px;" y="0" x="0" id="text-entity-FIGHT-44b9a4ae-6a7d-51d4-83bd-91f9b75abf4c-attr-11-name" class="er entityLabel" fill="#000000">updated_at</text></g><g transform="translate(28.859375,818 )" id="entity-EVENT-12434316-4a87-5800-981a-68e9670d1fb3"><rect height="156" width="121.015625" y="0" x="0" class="er entityBox"/><text transform="translate(60.5078125,12)" style="dominant-baseline: middle; text-anchor: middle; font-size: 12px;" y="0" x="0" id="text-entity-EVENT-12434316-4a87-5800-981a-68e9670d1fb3" class="er entityLabel" fill="#000000">EVENT</text><rect height="22" width="58.671875" y="24" x="0" class="er attributeBoxOdd"/><text transform="translate(5,35)" style="dominant-baseline: middle; font-size: 10.2px;" y="0" x="0" id="text-entity-EVENT-12434316-4a87-5800-981a-68e9670d1fb3-attr-1-type" class="er entityLabel" fill="#000000">int</text><rect height="22" width="62.34375" y="24" x="58.671875" class="er attributeBoxOdd"/><text transform="translate(63.671875,35)" style="dominant-baseline: middle; font-size: 10.2px;" y="0" x="0" id="text-entity-EVENT-12434316-4a87-5800-981a-68e9670d1fb3-attr-1-name" class="er entityLabel" fill="#000000">id</text><rect height="22" width="58.671875" y="46" x="0" class="er attributeBoxEven"/><text transform="translate(5,57)" style="dominant-baseline: middle; font-size: 10.2px;" y="0" x="0" id="text-entity-EVENT-12434316-4a87-5800-981a-68e9670d1fb3-attr-2-type" class="er entityLabel" fill="#000000">string</text><rect height="22" width="62.34375" y="46" x="58.671875" class="er attributeBoxEven"/><text transform="translate(63.671875,57)" style="dominant-baseline: middle; font-size: 10.2px;" y="0" x="0" id="text-entity-EVENT-12434316-4a87-5800-981a-68e9670d1fb3-attr-2-name" class="er entityLabel" fill="#000000">name</text><rect height="22" width="58.671875" y="68" x="0" class="er attributeBoxOdd"/><text transform="translate(5,79)" style="dominant-baseline: middle; font-size: 10.2px;" y="0" x="0" id="text-entity-EVENT-12434316-4a87-5800-981a-68e9670d1fb3-attr-3-type" class="er entityLabel" fill="#000000">string</text><rect height="22" width="62.34375" y="68" x="58.671875" class="er attributeBoxOdd"/><text transform="translate(63.671875,79)" style="dominant-baseline: middle; font-size: 10.2px;" y="0" x="0" id="text-entity-EVENT-12434316-4a87-5800-981a-68e9670d1fb3-attr-3-name" class="er entityLabel" fill="#000000">location</text><rect height="22" width="58.671875" y="90" x="0" class="er attributeBoxEven"/><text transform="translate(5,101)" style="dominant-baseline: middle; font-size: 10.2px;" y="0" x="0" id="text-entity-EVENT-12434316-4a87-5800-981a-68e9670d1fb3-attr-4-type" class="er entityLabel" fill="#000000">date</text><rect height="22" width="62.34375" y="90" x="58.671875" class="er attributeBoxEven"/><text transform="translate(63.671875,101)" style="dominant-baseline: middle; font-size: 10.2px;" y="0" x="0" id="text-entity-EVENT-12434316-4a87-5800-981a-68e9670d1fb3-attr-4-name" class="er entityLabel" fill="#000000">date</text><rect height="22" width="58.671875" y="112" x="0" class="er attributeBoxOdd"/><text transform="translate(5,123)" style="dominant-baseline: middle; font-size: 10.2px;" y="0" x="0" id="text-entity-EVENT-12434316-4a87-5800-981a-68e9670d1fb3-attr-5-type" class="er entityLabel" fill="#000000">timestamp</text><rect height="22" width="62.34375" y="112" x="58.671875" class="er attributeBoxOdd"/><text transform="translate(63.671875,123)" style="dominant-baseline: middle; font-size: 10.2px;" y="0" x="0" id="text-entity-EVENT-12434316-4a87-5800-981a-68e9670d1fb3-attr-5-name" class="er entityLabel" fill="#000000">created_at</text><rect height="22" width="58.671875" y="134" x="0" class="er attributeBoxEven"/><text transform="translate(5,145)" style="dominant-baseline: middle; font-size: 10.2px;" y="0" x="0" id="text-entity-EVENT-12434316-4a87-5800-981a-68e9670d1fb3-attr-6-type" class="er entityLabel" fill="#000000">timestamp</text><rect height="22" width="62.34375" y="134" x="58.671875" class="er attributeBoxEven"/><text transform="translate(63.671875,145)" style="dominant-baseline: middle; font-size: 10.2px;" y="0" x="0" id="text-entity-EVENT-12434316-4a87-5800-981a-68e9670d1fb3-attr-6-name" class="er entityLabel" fill="#000000">updated_at</text></g><g transform="translate(431.14453125,529 )" id="entity-WEIGHTCLASS-391d62fc-5a1f-59d2-bd67-8a1fcddc3c02"><rect height="112" width="116.4453125" y="0" x="0" class="er entityBox"/><text transform="translate(58.22265625,12)" style="dominant-baseline: middle; text-anchor: middle; font-size: 12px;" y="0" x="0" id="text-entity-WEIGHTCLASS-391d62fc-5a1f-59d2-bd67-8a1fcddc3c02" class="er entityLabel" fill="#000000">WEIGHT_CLASS</text><rect height="22" width="35.7421875" y="24" x="0" class="er attributeBoxOdd"/><text transform="translate(5,35)" style="dominant-baseline: middle; font-size: 10.2px;" y="0" x="0" id="text-entity-WEIGHTCLASS-391d62fc-5a1f-59d2-bd67-8a1fcddc3c02-attr-1-type" class="er entityLabel" fill="#000000">int</text><rect height="22" width="80.703125" y="24" x="35.7421875" class="er attributeBoxOdd"/><text transform="translate(40.7421875,35)" style="dominant-baseline: middle; font-size: 10.2px;" y="0" x="0" id="text-entity-WEIGHTCLASS-391d62fc-5a1f-59d2-bd67-8a1fcddc3c02-attr-1-name" class="er entityLabel" fill="#000000">id</text><rect height="22" width="35.7421875" y="46" x="0" class="er attributeBoxEven"/><text transform="translate(5,57)" style="dominant-baseline: middle; font-size: 10.2px;" y="0" x="0" id="text-entity-WEIGHTCLASS-391d62fc-5a1f-59d2-bd67-8a1fcddc3c02-attr-2-type" class="er entityLabel" fill="#000000">string</text><rect height="22" width="80.703125" y="46" x="35.7421875" class="er attributeBoxEven"/><text transform="translate(40.7421875,57)" style="dominant-baseline: middle; font-size: 10.2px;" y="0" x="0" id="text-entity-WEIGHTCLASS-391d62fc-5a1f-59d2-bd67-8a1fcddc3c02-attr-2-name" class="er entityLabel" fill="#000000">name</text><rect height="22" width="35.7421875" y="68" x="0" class="er attributeBoxOdd"/><text transform="translate(5,79)" style="dominant-baseline: middle; font-size: 10.2px;" y="0" x="0" id="text-entity-WEIGHTCLASS-391d62fc-5a1f-59d2-bd67-8a1fcddc3c02-attr-3-type" class="er entityLabel" fill="#000000">int</text><rect height="22" width="80.703125" y="68" x="35.7421875" class="er attributeBoxOdd"/><text transform="translate(40.7421875,79)" style="dominant-baseline: middle; font-size: 10.2px;" y="0" x="0" id="text-entity-WEIGHTCLASS-391d62fc-5a1f-59d2-bd67-8a1fcddc3c02-attr-3-name" class="er entityLabel" fill="#000000">min_weight_kg</text><rect height="22" width="35.7421875" y="90" x="0" class="er attributeBoxEven"/><text transform="translate(5,101)" style="dominant-baseline: middle; font-size: 10.2px;" y="0" x="0" id="text-entity-WEIGHTCLASS-391d62fc-5a1f-59d2-bd67-8a1fcddc3c02-attr-4-type" class="er entityLabel" fill="#000000">int</text><rect height="22" width="80.703125" y="90" x="35.7421875" class="er attributeBoxEven"/><text transform="translate(40.7421875,101)" style="dominant-baseline: middle; font-size: 10.2px;" y="0" x="0" id="text-entity-WEIGHTCLASS-391d62fc-5a1f-59d2-bd67-8a1fcddc3c02-attr-4-name" class="er entityLabel" fill="#000000">max_weight_kg</text></g><g transform="translate(598.259765625,818 )" id="entity-RANKING-dfe02672-3500-5e63-8acb-c181f8a7a0f9"><rect height="156" width="140.4375" y="0" x="0" class="er entityBox"/><text transform="translate(70.21875,12)" style="dominant-baseline: middle; text-anchor: middle; font-size: 12px;" y="0" x="0" id="text-entity-RANKING-dfe02672-3500-5e63-8acb-c181f8a7a0f9" class="er entityLabel" fill="#000000">RANKING</text><rect height="22" width="58.671875" y="24" x="0" class="er attributeBoxOdd"/><text transform="translate(5,35)" style="dominant-baseline: middle; font-size: 10.2px;" y="0" x="0" id="text-entity-RANKING-dfe02672-3500-5e63-8acb-c181f8a7a0f9-attr-1-type" class="er entityLabel" fill="#000000">int</text><rect height="22" width="81.765625" y="24" x="58.671875" class="er attributeBoxOdd"/><text transform="translate(63.671875,35)" style="dominant-baseline: middle; font-size: 10.2px;" y="0" x="0" id="text-entity-RANKING-dfe02672-3500-5e63-8acb-c181f8a7a0f9-attr-1-name" class="er entityLabel" fill="#000000">id</text><rect height="22" width="58.671875" y="46" x="0" class="er attributeBoxEven"/><text transform="translate(5,57)" style="dominant-baseline: middle; font-size: 10.2px;" y="0" x="0" id="text-entity-RANKING-dfe02672-3500-5e63-8acb-c181f8a7a0f9-attr-2-type" class="er entityLabel" fill="#000000">int</text><rect height="22" width="81.765625" y="46" x="58.671875" class="er attributeBoxEven"/><text transform="translate(63.671875,57)" style="dominant-baseline: middle; font-size: 10.2px;" y="0" x="0" id="text-entity-RANKING-dfe02672-3500-5e63-8acb-c181f8a7a0f9-attr-2-name" class="er entityLabel" fill="#000000">fighter_id</text><rect height="22" width="58.671875" y="68" x="0" class="er attributeBoxOdd"/><text transform="translate(5,79)" style="dominant-baseline: middle; font-size: 10.2px;" y="0" x="0" id="text-entity-RANKING-dfe02672-3500-5e63-8acb-c181f8a7a0f9-attr-3-type" class="er entityLabel" fill="#000000">int</text><rect height="22" width="81.765625" y="68" x="58.671875" class="er attributeBoxOdd"/><text transform="translate(63.671875,79)" style="dominant-baseline: middle; font-size: 10.2px;" y="0" x="0" id="text-entity-RANKING-dfe02672-3500-5e63-8acb-c181f8a7a0f9-attr-3-name" class="er entityLabel" fill="#000000">weight_class_id</text><rect height="22" width="58.671875" y="90" x="0" class="er attributeBoxEven"/><text transform="translate(5,101)" style="dominant-baseline: middle; font-size: 10.2px;" y="0" x="0" id="text-entity-RANKING-dfe02672-3500-5e63-8acb-c181f8a7a0f9-attr-4-type" class="er entityLabel" fill="#000000">int</text><rect height="22" width="81.765625" y="90" x="58.671875" class="er attributeBoxEven"/><text transform="translate(63.671875,101)" style="dominant-baseline: middle; font-size: 10.2px;" y="0" x="0" id="text-entity-RANKING-dfe02672-3500-5e63-8acb-c181f8a7a0f9-attr-4-name" class="er entityLabel" fill="#000000">points</text><rect height="22" width="58.671875" y="112" x="0" class="er attributeBoxOdd"/><text transform="translate(5,123)" style="dominant-baseline: middle; font-size: 10.2px;" y="0" x="0" id="text-entity-RANKING-dfe02672-3500-5e63-8acb-c181f8a7a0f9-attr-5-type" class="er entityLabel" fill="#000000">int</text><rect height="22" width="81.765625" y="112" x="58.671875" class="er attributeBoxOdd"/><text transform="translate(63.671875,123)" style="dominant-baseline: middle; font-size: 10.2px;" y="0" x="0" id="text-entity-RANKING-dfe02672-3500-5e63-8acb-c181f8a7a0f9-attr-5-name" class="er entityLabel" fill="#000000">rank</text><rect height="22" width="58.671875" y="134" x="0" class="er attributeBoxEven"/><text transform="translate(5,145)" style="dominant-baseline: middle; font-size: 10.2px;" y="0" x="0" id="text-entity-RANKING-dfe02672-3500-5e63-8acb-c181f8a7a0f9-attr-6-type" class="er entityLabel" fill="#000000">timestamp</text><rect height="22" width="81.765625" y="134" x="58.671875" class="er attributeBoxEven"/><text transform="translate(63.671875,145)" style="dominant-baseline: middle; font-size: 10.2px;" y="0" x="0" id="text-entity-RANKING-dfe02672-3500-5e63-8acb-c181f8a7a0f9-attr-6-name" class="er entityLabel" fill="#000000">last_updated</text></g><rect height="14" width="95.34375" y="345.80548095703125" x="-92.72067642211914" class="er relationshipLabelBox"/><text style="text-anchor: middle; dominant-baseline: middle; font-size: 12px;" y="352.80548095703125" x="-45.04880142211914" id="rel118" class="er relationshipLabel" fill="#000000">red_corner_fights</text><rect height="14" width="100.78125" y="342.80865478515625" x="-29.927940368652344" class="er relationshipLabelBox"/><text style="text-anchor: middle; dominant-baseline: middle; font-size: 12px;" y="349.80865478515625" x="20.462684631347656" id="rel119" class="er relationshipLabel" fill="#000000">blue_corner_fights</text><rect height="14" width="23.765625" y="345.1080322265625" x="73.10443878173828" class="er relationshipLabelBox"/><text style="text-anchor: middle; dominant-baseline: middle; font-size: 12px;" y="352.1080322265625" x="84.98725128173828" id="rel120" class="er relationshipLabel" fill="#000000">wins</text><rect height="14" width="30.28125" y="761.623779296875" x="29.797813415527344" class="er relationshipLabelBox"/><text style="text-anchor: middle; dominant-baseline: middle; font-size: 12px;" y="768.623779296875" x="44.938438415527344" id="rel121" class="er relationshipLabel" fill="#000000">event</text><rect height="14" width="60.59375" y="394.367431640625" x="110.3330078125" class="er relationshipLabelBox"/><text style="text-anchor: middle; dominant-baseline: middle; font-size: 12px;" y="401.367431640625" x="140.6298828125" id="rel122" class="er relationshipLabel" fill="#000000">fighter_red</text><rect height="14" width="66.0234375" y="425.37847900390625" x="178.73265075683594" class="er relationshipLabelBox"/><text style="text-anchor: middle; dominant-baseline: middle; font-size: 12px;" y="432.37847900390625" x="211.74436950683594" id="rel123" class="er relationshipLabel" fill="#000000">fighter_blue</text><rect height="14" width="36.6796875" y="438.3609619140625" x="253.32150268554688" class="er relationshipLabelBox"/><text style="text-anchor: middle; dominant-baseline: middle; font-size: 12px;" y="445.3609619140625" x="271.6613464355469" id="rel124" class="er relationshipLabel" fill="#000000">winner</text><rect height="14" width="68.03125" y="372.0523376464844" x="373.1836853027344" class="er relationshipLabelBox"/><text style="text-anchor: middle; dominant-baseline: middle; font-size: 12px;" y="379.0523376464844" x="407.1993103027344" id="rel125" class="er relationshipLabel" fill="#000000">weight_class</text><rect height="14" width="36.40625" y="422.028076171875" x="611.7225341796875" class="er relationshipLabelBox"/><text style="text-anchor: middle; dominant-baseline: middle; font-size: 12px;" y="429.028076171875" x="629.9256591796875" id="rel126" class="er relationshipLabel" fill="#000000">fighter</text><rect height="14" width="68.03125" y="698.9429321289062" x="636.0510864257812" class="er relationshipLabelBox"/><text style="text-anchor: middle; dominant-baseline: middle; font-size: 12px;" y="705.9429321289062" x="670.0667114257812" id="rel127" class="er relationshipLabel" fill="#000000">weight_class</text><rect height="14" width="41.265625" y="345.7091979980469" x="433.6513366699219" class="er relationshipLabelBox"/><text style="text-anchor: middle; dominant-baseline: middle; font-size: 12px;" y="352.7091979980469" x="454.2841491699219" id="rel128" class="er relationshipLabel" fill="#000000">fighters</text><rect height="14" width="44.4375" y="754.8741455078125" x="486.42694091796875" class="er relationshipLabelBox"/><text style="text-anchor: middle; dominant-baseline: middle; font-size: 12px;" y="761.8741455078125" x="508.64569091796875" id="rel129" class="er relationshipLabel" fill="#000000">rankings</text><rect height="14" width="30.0546875" y="750.9674072265625" x="253.37612915039062" class="er relationshipLabelBox"/><text style="text-anchor: middle; dominant-baseline: middle; font-size: 12px;" y="757.9674072265625" x="268.4034729003906" id="rel130" class="er relationshipLabel" fill="#000000">fights</text></svg>